<?xml version="1.0" encoding="UTF-8"?>
<svg id="Rama_Group_Red" data-name="Rama Group Red" xmlns="http://www.w3.org/2000/svg" viewBox="0 0 774.7 209.71">
  <defs>
    <style>
      .cls-1 {
        fill: #d7292c;
      }
    </style>
  </defs>
  <g id="RAMA">
    <path class="cls-1" d="M84.4,104.86h-25.66l68.3,84.85H20V30.3L0,6.53v203.18h168.81l-84.41-104.85Z"/>
    <path class="cls-1" d="M116.39,0H0l20,24.85v-4.85h96.39c17.88,0,32.42,14.55,32.42,32.43s-14.54,32.43-32.42,32.43h-48.09l16.1,20h31.99c14.47,0,27.58-5.87,37.07-15.35,9.48-9.49,15.35-22.6,15.35-37.08,0-28.95-23.47-52.43-52.42-52.43Z"/>
    <path class="cls-1" d="M259.15,0l-84.4,209.71h168.82L259.15,0ZM259.15,53.57l54.81,136.14h-109.6l54.79-136.14Z"/>
    <path class="cls-1" d="M474.72,104.86L432.51,0l-84.4,209.71h84.41l8.05-20h-62.85l54.79-136.14,31.43,78.07,10.78,26.78,10.78-26.78-10.78-26.78Z"/>
    <path class="cls-1" d="M516.92,0l-42.2,104.86-10.78,26.78,10.78,26.78,10.78-26.78,31.42-78.07,54.81,136.14h-62.85l8.05,20h84.41L516.92,0Z"/>
    <path class="cls-1" d="M690.28,0l-84.4,209.71h168.82L690.28,0ZM690.28,53.57l54.8,136.14h-109.59l54.79-136.14Z"/>
  </g>
</svg>